<?xml version="1.0" standalone="no"?><!DOCTYPE svg PUBLIC "-//W3C//DTD SVG 1.1//EN" "http://www.w3.org/Graphics/SVG/1.1/DTD/svg11.dtd"><svg class="icon" width="200px" height="199.80px" viewBox="0 0 1025 1024" version="1.1" xmlns="http://www.w3.org/2000/svg"><path fill="#1296db" d="M768 810.666667h-256c-17.066667 0-34.133333-8.533333-38.4-25.6-8.533333-17.066667-4.266667-34.133333 8.533333-46.933334l81.066667-89.6H42.666667c-25.6 0-42.666667-17.066667-42.666667-42.666666V418.133333c0-25.6 17.066667-42.666667 42.666667-42.666666h520.533333l-81.066667-89.6c-12.8-12.8-17.066667-29.866667-8.533333-46.933334 4.266667-17.066667 21.333333-25.6 38.4-25.6h256c12.8 0 25.6 4.266667 34.133333 17.066667l213.333334 256c12.8 17.066667 12.8 38.4 0 55.466667l-213.333334 256c-8.533333 8.533333-21.333333 12.8-34.133333 12.8z m-157.866667-85.333334h136.533334l179.2-213.333333-179.2-213.333333h-136.533334l81.066667 89.6c12.8 12.8 12.8 29.866667 8.533333 46.933333-8.533333 17.066667-21.333333 25.6-38.4 25.6H85.333333v106.666667h576c17.066667 0 34.133333 8.533333 38.4 25.6 8.533333 17.066667 4.266667 34.133333-8.533333 46.933333l-81.066667 85.333333z" /></svg>